Simulation
nRows=39
nColumns=15
endheader
time  TH_x TH_y TH_z SC_y  SC_z  SC_x  AC_y  AC_z  AC_x  GH_y  GH_z  GH_yy  EL_x  PS_y
0.0  0.000000  0.000000  0.000000  -21.481837363305974  5.049547332879065  0.3347068766571287  41.57021673069885  4.214874118780057  -8.392781290425907  83.46536469352208  9.348143544605847  -30.25661558607404  20.85365577743781  120.000000
0.04802000000000001  0.000000  0.000000  0.000000  -22.493872256301387  5.271011618365728  -0.3479500725687241  42.55373154775384  4.80415582998395  -6.8538379365590165  74.16745545187388  8.597678905599777  -22.180108167920118  20.34117096736049  120.000000
0.09604000000000001  0.000000  0.000000  0.000000  -23.272858624690738  5.514285647731193  -0.9530703349772336  43.42770037710701  5.352216915012941  -5.468362426788376  63.348698845752985  8.323871258304452  -12.692692387447392  19.805481170642764  120.000000
0.14406000000000002  0.000000  0.000000  0.000000  -23.742841021360576  5.771620177372338  -1.5386410535790769  44.04796822364639  5.83726961294753  -4.309148287545335  51.64344546703297  8.563889965617292  -2.556652685626502  19.19803537646655  120.000000
0.19208000000000003  0.000000  0.000000  0.000000  -23.96031282568503  6.046664966319524  -2.146681148625652  44.35866973272804  6.2370969734834265  -3.3630269706485243  40.39722110298651  9.37266810920763  6.756514205324894  18.511433995004637  120.000000
0.24010000000000004  0.000000  0.000000  0.000000  -23.96831257744849  6.327715416609707  -2.813346779392775  44.41855554149007  6.549262893573548  -2.590343207060293  30.785630217096923  10.73863421019458  14.010673458454756  17.7677411946593  120.000000
0.28812000000000004  0.000000  0.000000  0.000000  -23.866913663293097  6.595743240467256  -3.5311651209244026  44.301926627030056  6.776216655984924  -1.9345381570770523  23.221939081452636  12.592721722466543  18.76988385466716  16.99334694796983  120.000000
0.33614000000000005  0.000000  0.000000  0.000000  -23.744854598553825  6.833615711069968  -4.274093408622448  44.10205055454446  6.9527348407388345  -1.3582643480579502  17.495331209804835  14.84619106332052  21.296287417158666  16.21128564695959  120.000000
0.38416000000000006  0.000000  0.000000  0.000000  -23.688628304786253  7.049800523167818  -5.008831456938317  43.88381733703166  7.125019501074088  -0.8241536149982751  13.11241170947217  17.402271321817533  22.18021687652672  15.44575784863469  120.000000
0.43218000000000006  0.000000  0.000000  0.000000  -23.75182638941187  7.249004708264292  -5.70079944059429  43.696464402311605  7.348043588537292  -0.3074262858769982  9.580955460954142  20.17328039148368  22.035550064131662  14.708629582927765  120.000000
0.48020000000000007  0.000000  0.000000  0.000000  -23.975817274125593  7.447192170273661  -6.3115611432659255  43.56698253657369  7.663602675233216  0.2148795419370494  6.564620712336588  23.083094263422712  21.3346825941195  14.012786471470804  120.000000
0.5282200000000001  0.000000  0.000000  0.000000  -24.397711147875405  7.658389343649058  -6.80452519315125  43.5076454990805  8.097619564402322  0.7493679815689555  3.868221235500295  26.06096668418686  20.406403584343796  13.362426336470499  120.000000
0.5762400000000001  0.000000  0.000000  0.000000  -25.05264574466374  7.906443343197153  -7.144899244372546  43.5215154166003  8.652080488358164  1.2921937861758321  1.415014547243941  29.04541467312442  19.450550859322767  12.760686753337579  120.000000
0.62426  0.000000  0.000000  0.000000  -25.96011255218597  8.205474356707787  -7.297797605221453  43.60648566526785  9.31296125079988  1.8385026901839148  -0.8075367535888915  31.98778639983908  18.57562897958703  12.20462780781986  120.000000
0.6722800000000001  0.000000  0.000000  0.000000  -27.11994821591312  8.566158290128918  -7.243863687667099  43.76953673419817  10.057225394198861  2.3900517940738024  -2.7722618825880883  34.8573936319222  17.814717511566425  11.692671944477276  120.000000
0.7203000000000002  0.000000  0.000000  0.000000  -28.510291827399953  8.98411722924398  -6.978154362012991  44.01883278522721  10.856152267260008  2.953778304671025  -4.452357650664832  37.6373120360104  17.154929456409842  11.218596649030088  120.000000
0.7683200000000001  0.000000  0.000000  0.000000  -30.0936933283742  9.443316928441426  -6.510363024019935  44.36381960088015  11.67874857705777  3.530213073057125  -5.827485996974545  40.31729984265241  16.546053024423124  10.771839380650258  120.000000
0.8163400000000001  0.000000  0.000000  0.000000  -31.812745384960696  9.916780255770666  -5.8623103218125525  44.80608236750322  12.497484215807994  4.112037614862931  -6.884458965368908  42.88401919501044  15.910857588898418  10.335283705597108  120.000000
0.8643600000000001  0.000000  0.000000  0.000000  -33.60041811311664  10.377784521938462  -5.063493338523836  45.33677104486854  13.292494698980537  4.692055922720177  -7.60853954997904  45.31973519338287  15.161205288964336  9.893859117091255  120.000000
0.9123800000000002  0.000000  0.000000  0.000000  -35.37689377901711  10.808033938004284  -4.152526923254607  45.93041863305097  14.051363304974142  5.261750293860217  -8.012794865023658  47.61117983173914  14.24305862386734  9.434393014195075  120.000000
0.9604000000000001  0.000000  0.000000  0.000000  -37.06450293759566  11.202491249587954  -3.176639488801167  46.544512116074955  14.767285818577262  5.814268919087817  -8.140312152276746  49.754585140252466  13.144678164066807  8.955481594263858  120.000000
1.00842  0.000000  0.000000  0.000000  -38.59754984126871  11.563922867205866  -2.186645376739184  47.125875033201005  15.435459643049427  6.347048607041784  -8.059427630431564  51.75529587169274  11.89598534645003  8.470065860164002  120.000000
1.0564400000000003  0.000000  0.000000  0.000000  -39.93387542544273  11.90173675459189  -1.2324443522550792  47.62482138539448  16.049178751268755  6.856537582239116  -7.851059773167501  53.621016879331144  10.558086762294279  8.00119623795899  120.000000
1.1044600000000002  0.000000  0.000000  0.000000  -41.06012407665703  12.223345680432363  -0.3564640900669025  48.00655662905266  16.599713786336434  7.337986757141926  -7.593019979723805  55.35762643124516  9.20764570455492  7.574773060013988  120.000000
1.1524800000000002  0.000000  0.000000  0.000000  -41.98613858022341  12.532627474820062  0.4081570674585709  48.259677792953575  17.079253158970914  7.7874423426495625  -7.347420169371885  56.96404125574406  7.921599889418014  7.213502467976589  120.000000
1.2005000000000001  0.000000  0.000000  0.000000  -42.73683995681303  12.829016956890104  1.0407352332896624  48.398032029443634  17.479111698675112  8.199562860755913  -7.153511330243369  58.43374570315468  6.7667459059445445  6.935269109526981  120.000000
1.24852  0.000000  0.000000  0.000000  -43.34183076154122  13.109352438985507  1.5354570545647896  48.45110557736495  17.790947660318682  8.56804867195818  -7.029567080409619  59.75355948471796  5.794342103207409  6.751636472277755  120.000000
1.2965400000000002  0.000000  0.000000  0.000000  -43.82866834659517  13.370677766119327  1.8956349834168407  48.452751823498545  18.009804516406938  8.886497284320106  -6.977097078915902  60.90778068078881  5.038698010816124  6.66930638210893  120.000000
1.3445600000000002  0.000000  0.000000  0.000000  -44.218663178792966  13.610220010312426  2.1321008700972954  48.42956987125576  18.139173793408386  9.153422760793855  -6.988283102748609  61.8810349493354  4.515047580496412  6.686831869144779  120.000000
1.3925800000000002  0.000000  0.000000  0.000000  -44.52736323158724  13.826749375708316  2.262641843598215  48.39725042974553  18.19242503471097  9.370828241603757  -7.052017226510549  62.66363119570344  4.2181762261979765  6.789531952241131  120.000000
1.4406000000000003  0.000000  0.000000  0.000000  -44.76749575908019  14.01849868948888  2.3132502212143593  48.36245699072815  18.190923180965658  9.544443077819016  -7.157239446363596  63.256602300802534  4.121901106394971  6.946761419327873  120.000000
1.4886200000000003  0.000000  0.000000  0.000000  -44.94930312771071  14.183698818780913  2.3152232589513084  48.325811841967045  18.160531814893318  9.681666029579782  -7.294791975658484  63.67094653600295  4.1843613337872405  7.115056917563324  120.000000
1.5366400000000002  0.000000  0.000000  0.000000  -45.08245572325671  14.32028599207102  2.298642533183687  48.286626393353096  18.12534554103865  9.78855336538137  -7.454991546337055  63.92618746660361  4.356591274343566  7.249477045542869  120.000000
1.5846600000000002  0.000000  0.000000  0.000000  -45.17297219623465  14.426354428662933  2.2869506930408376  48.24332632225695  18.103075028377432  9.869505593569519  -7.626152951083324  64.04268106208387  4.592223458534979  7.314904942165901  120.000000
1.6326800000000001  0.000000  0.000000  0.000000  -45.22320542845811  14.500859853160769  2.2922715298246223  48.195054801155656  18.100510915880342  9.924572424151352  -7.791393858277386  64.03524984694846  4.855041742649629  7.298017226744518  120.000000
1.6807000000000003  0.000000  0.000000  0.000000  -45.22877287754893  14.54372574703331  2.314872376531603  48.14078929703792  18.113740543730966  9.950564016114551  -7.929149526155783  63.904603729632136  5.121242926837451  7.2092694562672675  120.000000
1.7287200000000003  0.000000  0.000000  0.000000  -45.17910547052307  14.555441731358554  2.346240676799414  48.08005564096475  18.1301782294525  9.941380823420513  -8.013446944113673  63.63107165543413  5.375450591853513  7.077521190550654  120.000000
1.7767400000000002  0.000000  0.000000  0.000000  -45.05897120520421  14.53732330874767  2.372023859731291  48.01414471313702  18.132229158191794  9.889783487912208  -8.01700121648793  63.170557797413636  5.603985931291204  6.941111704633134  120.000000
1.8247600000000004  0.000000  0.000000  0.000000  -44.85347852294108  14.491529228702648  2.37616555691855  47.94703783912812  18.100129875545917  9.790930720080997  -7.913381193924961  62.45424494364314  5.788452186271281  6.842394217003099  120.000000
